<svg xmlns="http://www.w3.org/2000/svg" width="1400" height="800" font-family="Menlo, monospace">
  <rect width="1400" height="800" fill="#1e1e2e"/>
  <!-- window chrome -->
  <rect x="0" y="0" width="1400" height="34" fill="#11111b"/>
  <circle cx="20" cy="17" r="6" fill="#f38ba8"/><circle cx="40" cy="17" r="6" fill="#f9e2af"/><circle cx="60" cy="17" r="6" fill="#a6e3a1"/>
  <text x="700" y="22" fill="#a6adc8" font-size="13" text-anchor="middle">worktree ../wt-a1  (branch: agent1)   |   you: main</text>
  <!-- divider -->
  <rect x="698" y="34" width="4" height="766" fill="#11111b"/>
  <!-- LEFT: claude code -->
  <text x="24" y="66" fill="#cba6f7" font-size="15">&#9650;&#9650; Claude Code — ../wt-a1</text>
  <text x="24" y="100" fill="#a6adc8" font-size="14">&gt; add retry logic to fetch_orders();</text>
  <text x="24" y="122" fill="#a6adc8" font-size="14">  write tests first</text>
  <text x="24" y="156" fill="#89b4fa" font-size="14">&#9679; Reading src/orders.py…</text>
  <text x="24" y="182" fill="#89b4fa" font-size="14">&#9679; Writing tests/test_orders.py</text>
  <text x="24" y="208" fill="#a6e3a1" font-size="14">  + test_retry_on_timeout</text>
  <text x="24" y="234" fill="#a6e3a1" font-size="14">  + test_gives_up_after_3</text>
  <text x="24" y="260" fill="#89b4fa" font-size="14">&#9679; Running pytest…</text>
  <text x="24" y="286" fill="#f38ba8" font-size="14">  2 failed (good: not built yet)</text>
  <text x="24" y="312" fill="#89b4fa" font-size="14">&#9679; Editing src/orders.py</text>
  <text x="24" y="338" fill="#89b4fa" font-size="14">&#9679; Running pytest…</text>
  <text x="24" y="364" fill="#a6e3a1" font-size="14">  14 passed &#10003;</text>
  <text x="24" y="398" fill="#cba6f7" font-size="14">&#8226; Done. Branch agent1: 3 commits.</text>
  <text x="24" y="424" fill="#f9e2af" font-size="14">  Review with: git diff main...agent1</text>
  <text x="24" y="470" fill="#6c7086" font-size="14">&gt; _</text>
  <!-- RIGHT: editor -->
  <text x="722" y="66" fill="#cba6f7" font-size="15">your editor — main (you keep working)</text>
  <rect x="716" y="80" width="660" height="24" fill="#313244"/>
  <text x="726" y="97" fill="#cdd6f4" font-size="13">src/report.py</text>
  <text x="726" y="132" fill="#6c7086" font-size="14">41</text><text x="766" y="132" fill="#cdd6f4" font-size="14">def summary(rows):</text>
  <text x="726" y="158" fill="#6c7086" font-size="14">42</text><text x="766" y="158" fill="#cdd6f4" font-size="14">    out = {}</text>
  <text x="726" y="184" fill="#6c7086" font-size="14">43</text><text x="766" y="184" fill="#cdd6f4" font-size="14">    for r in rows:</text>
  <text x="726" y="210" fill="#6c7086" font-size="14">44</text><text x="766" y="210" fill="#a6e3a1" font-size="14">        out[r.day] = out.get(r.day, 0) + r.total</text>
  <text x="726" y="236" fill="#6c7086" font-size="14">45</text><text x="766" y="236" fill="#cdd6f4" font-size="14">    return out</text>
  <text x="726" y="288" fill="#6c7086" font-size="13">-- you edit here, on main, undisturbed --</text>
  <!-- terminal strip under editor -->
  <rect x="716" y="640" width="660" height="140" fill="#181825"/>
  <text x="726" y="668" fill="#a6adc8" font-size="14">$ git diff main...agent1 --stat</text>
  <text x="726" y="694" fill="#cdd6f4" font-size="14">  src/orders.py        | 31 ++++++++--</text>
  <text x="726" y="720" fill="#cdd6f4" font-size="14">  tests/test_orders.py | 58 ++++++++++++</text>
  <text x="726" y="746" fill="#a6adc8" font-size="14">$ git merge --no-ff agent1   # after YOU review</text>
</svg>
